<svg
  id="a1abf79b-e391-4bcf-8987-636935a23cf1"
  data-name="f7c8b6b0-36ab-4da3-9ddd-7b794d0fa3ba"
  xmlns="http://www.w3.org/2000/svg"
  viewBox="0 0 244.18 34.5"
  aria-hidden="true"
  role="img"
>
  <title>HAWK GT1191</title>
  <defs>
    <style>
      .gt1191brand-bg {
        fill-rule: evenodd;
        fill: #ff8200;
      }
      .gt1191brand-hawk {
        fill: #15232d;
      }
      .gt1191brand-label {
        fill: #fff;
      }
    </style>
  </defs>
  <path class="gt1191brand-bg" d="M86.43 17.25 96.94 34.5h147.24V0H96.19" />
  <path
    class="gt1191brand-hawk"
    d="M5.36 18.74H18V34.5h5.35V0H18v13.79H5.36V0H0v34.5h5.36V18.74zM34.5 0l-9.64 34.5h5.84l3.58-12.86h8.33l-1.17-4.92h-5.79L40.34 0H34.5zM40.82 0l8.32 34.5h5.84l6.57-27.96 6.56 27.96h5.84L82.27 0h-5.83l-5.48 27.66L64.46 0h-5.83l-6.49 27.66L46.67 0h-5.85zM81.74 16.73 92.43 34.5h6.33l-10.7-17.76L98.52 0h-6.33L81.74 16.73z"
  />
  <path
    class="gt1191brand-label"
    d="M125.52 17c0 2.48.13 5.42.17 7.47-5.22.1-7.08-2.61-7.08-7.53 0-4.18 1.3-7.08 9.59-6.75l-.2-3.56c-10.08.29-13.18 5.05-13.18 11 0 7.24 4.57 11.41 14.22 9.29v-9.85ZM132.31 10.05h5.94v17.09h3.78V10.05h5.77V6.92h-15.23l-.26 3.13zM168.03 6.27l-3.49.29v2.38l-5.03.53.07 2.64 4.96-.13v12.13h-5.48v3.03h13.57l.29-3.03h-4.89V6.27zM185.97 6.27l-3.49.29v2.38l-5.02.53.06 2.64 4.96-.13v12.13H177v3.03h13.57l.29-3.03h-4.89V6.27zM201.36 6.53a6.81 6.81 0 0 0-7.11 7c0 5.44 5.71 7.47 10.31 4.17-.75 2.87-2.94 5.09-8.12 7.18l1.5 3c7.14-3.23 10.34-7.76 10.34-13.4 0-5.21-2.81-7.95-6.92-7.95Zm3.53 8.94c-3.85 2.38-7.28 1.3-7.28-2.35 0-2.41 1.47-3.72 3.4-3.72 2.21 0 3.88 1.66 3.88 5.42ZM221.85 24.11V6.27l-3.49.29v2.38l-5.02.53.06 2.64 4.96-.13v12.13h-5.48v3.03h13.57l.29-3.03h-4.89z"
  />
</svg>
