<?xml version="1.0" encoding="UTF-8"?>
<svg id="Ebene_1" data-name="Ebene 1"
	xmlns="http://www.w3.org/2000/svg" viewBox="0 0 300 300">
	<defs>
		<style>
      .cls-1, .cls-2, .cls-3 {
        stroke-width: 0px;
      }

      .cls-2 {
        fill: #fff;
      }

      .cls-3 {
        fill: #004fcd;
      }

			@media (prefers-color-scheme: dark) {
        .cls-1 {
          fill: #fff;
        }
      }
		</style>
	</defs>
	<path class="cls-1" d="M17.02,102.39h38.18v47.61h16.16V45.78h-16.16v41.66H17.02v-41.66H.83v104.22h16.19v-47.61ZM105.05,45.78l-29.12,104.22h17.64l10.82-38.85h25.16l-3.53-14.86h-17.49l14.17-50.51h-17.64ZM124.14,45.78l25.13,104.22h17.64l19.85-84.47,19.82,84.47h17.64l25.13-104.22h-17.61l-16.55,83.56-19.64-83.56h-17.61l-19.61,83.56-16.52-83.56h-17.67ZM247.76,96.32l32.29,53.68h19.12l-32.32-53.65,31.6-50.57h-19.12l-31.57,50.54Z"/>
	<g>
		<path class="cls-3" d="M0,212.08l22.13,36.32h278.41v-72.63H20.15"/>
		<path class="cls-2" d="M63.41,211.55c0,5.22.27,11.41.36,15.73-10.99.21-14.91-5.49-14.91-15.85,0-8.8,2.74-14.91,20.19-14.21l-.42-7.49c-21.22.61-27.75,10.63-27.75,23.16,0,15.24,9.62,24.02,29.94,19.56v-20.74l-7.41-.15ZM77.71,196.92h12.51v35.98h7.96v-35.98h12.15v-6.59h-32.06l-.55,6.59h0ZM152.91,188.96l-7.35.61v5.01l-10.59,1.12.15,5.56,10.44-.27v25.54h-11.54v6.38h28.57l.61-6.38h-10.3v-37.56ZM190.68,188.96l-7.35.61v5.01l-10.57,1.12.13,5.56,10.44-.27v25.54h-11.54v6.38h28.57l.61-6.38h-10.3v-37.56ZM223.08,189.51c-7.91-.35-14.61,5.78-14.96,13.69-.02.35-.02.7,0,1.05,0,11.45,12.02,15.73,21.71,8.78-1.58,6.04-6.19,10.72-17.1,15.12l3.16,6.32c15.03-6.8,21.77-16.34,21.77-28.21,0-10.97-5.92-16.74-14.57-16.74ZM230.51,208.33c-8.11,5.01-15.33,2.74-15.33-4.95,0-5.07,3.09-7.83,7.16-7.83,4.65,0,8.17,3.49,8.17,11.41v1.37ZM266.22,226.52v-37.56l-7.35.61v5.01l-10.57,1.12.13,5.56,10.44-.27v25.54h-11.54v6.38h28.57l.61-6.38h-10.3Z"/>
	</g>
</svg>