<svg xmlns="http://www.w3.org/2000/svg" version="1.1" xmlns:xlink="http://www.w3.org/1999/xlink" xmlns:svgjs="http://svgjs.com/svgjs" width="170.08" height="170.08"><svg id="SvgjsSvg1000" xmlns="http://www.w3.org/2000/svg" viewBox="0 0 170.08 170.08"><defs><style>.cls-1{fill:#15232d;}.cls-1,.cls-2{fill-rule:evenodd;}.cls-2{fill:#fff;}.cls-3{font-size:39.34px;fill:#ff8200;font-family:OperatorMono-Medium, Operator Mono;font-weight:500;}</style></defs><polygon class="cls-1" points="0 170.08 170.08 170.08 170.08 0 0 0 0 170.08"></polygon><polygon class="cls-2" points="26.45 69.51 43.27 69.51 43.27 90.49 50.39 90.49 50.39 44.57 43.27 44.57 43.27 62.92 26.45 62.92 26.45 44.57 19.32 44.57 19.32 90.49 26.45 90.49 26.45 69.51"></polygon><polygon class="cls-2" points="65.23 44.57 52.4 90.49 60.17 90.49 64.94 73.38 76.04 73.38 74.47 66.83 66.77 66.83 73 44.57 65.23 44.57"></polygon><polygon class="cls-2" points="73.65 44.57 84.72 90.49 92.49 90.49 101.25 53.28 109.97 90.49 117.74 90.49 128.81 44.57 121.05 44.57 113.76 81.38 105.12 44.57 97.35 44.57 88.71 81.38 81.44 44.57 73.65 44.57"></polygon><polygon class="cls-2" points="128.11 66.84 142.35 90.49 150.76 90.49 136.52 66.85 150.45 44.57 142.02 44.57 128.11 66.84"></polygon><text class="cls-3" transform="translate(15.67 127.25)" svgjs:data="{&quot;leading&quot;:&quot;1.3&quot;}">GT</text><text class="cls-3" transform="translate(67.84 127.25)" svgjs:data="{&quot;leading&quot;:&quot;1.3&quot;}">1191</text></svg><style>@media (prefers-color-scheme: light) { :root { filter: none; } }
</style></svg>